PERFORMER "Rap Tapes by Grędziu"
TITLE "T?mon - Szelma | 1999 | Starej Taśmy Szum #3"
FILE "Tmon - Szelma _ 1999 _ Starej Taśmy Szum #3-4NbUGJelDOk.mp4" MP3
  TRACK 01 AUDIO
    TITLE "Intro"
    INDEX 01 00:00:00
  TRACK 02 AUDIO
    TITLE "Miejski Szyk"
    INDEX 01 00:35:00
  TRACK 03 AUDIO
    TITLE "Wszyscy"
    INDEX 01 04:48:00
  TRACK 04 AUDIO
    TITLE "Muzyczne Wspomnienia"
    INDEX 01 10:01:00
  TRACK 05 AUDIO
    TITLE "Stoję (Przy Mikrofonie)"
    INDEX 01 14:12:00
  TRACK 06 AUDIO
    TITLE "Ooops! Wpadka"
    INDEX 01 18:36:00
  TRACK 07 AUDIO
    TITLE "Tyle Snów 1 (Skit)"
    INDEX 01 22:22:00
  TRACK 08 AUDIO
    TITLE "Dzień Na Wyścigach"
    INDEX 01 25:07:00
  TRACK 09 AUDIO
    TITLE "Siedząc W Lokacjach"
    INDEX 01 30:31:00
  TRACK 10 AUDIO
    TITLE "Pianista"
    INDEX 01 35:55:00
  TRACK 11 AUDIO
    TITLE "Kiedyś Przyjdą Takie Dni"
    INDEX 01 39:15:00
  TRACK 12 AUDIO
    TITLE "Sij Pałę"
    INDEX 01 44:14:00
  TRACK 13 AUDIO
    TITLE "Tyle Słońca (W Całym Mieście) (Demo)"
    INDEX 01 49:23:00
  TRACK 14 AUDIO
    TITLE "To Więcej (Moje 7-1)"
    INDEX 01 54:31:00
  TRACK 15 AUDIO
    TITLE "Outro"
    INDEX 01 59:33:00